<svg width="52" height="42" viewBox="0 0 52 42" fill="none" xmlns="http://www.w3.org/2000/svg">
<path d="M26.1045 42C40.4062 42 52 32.7502 52 21.34C52 9.92984 40.4062 0.680054 26.1045 0.680054C11.8028 0.680054 0.208954 9.92984 0.208954 21.34C0.208954 32.7502 11.8028 42 26.1045 42Z" fill="#DA4167"/>
<path d="M39.4987 21.34L19.8538 32.0262V21.5345V10.6538L39.4987 21.34Z" fill="#F4D35E"/>
<path d="M19.8538 32.7386C19.711 32.7386 19.5672 32.7116 19.4368 32.656C19.1439 32.5328 18.9609 32.2905 18.9609 32.0262V10.6538C18.9609 10.3895 19.1439 10.1473 19.4368 10.0241C19.7297 9.90011 20.0833 9.9172 20.3574 10.0654L40.0023 20.7516C40.2452 20.8841 40.3917 21.1042 40.3917 21.34C40.3917 21.5758 40.2452 21.796 40.0014 21.9285L20.3566 32.6147C20.2056 32.6966 20.0297 32.7386 19.8538 32.7386ZM20.7468 12.0024V30.6783L37.9137 21.34L20.7468 12.0024Z" fill="#F4D35E"/>
</svg>
