<svg width="79" height="50" viewBox="0 0 79 50" fill="none" xmlns="http://www.w3.org/2000/svg">
<g clip-path="url(#clip0_1_73)">
<path d="M39.4999 4.16668C57.6792 4.16668 72.4166 13.4941 72.4166 25C72.4166 36.5058 57.6792 45.8333 39.4999 45.8333C21.3206 45.8333 6.58328 36.5058 6.58328 25C6.58328 13.4941 21.3206 4.16668 39.4999 4.16668ZM39.4999 8.33335C24.9564 8.33335 13.1666 15.7953 13.1666 25C13.1666 34.2048 24.9564 41.6667 39.4999 41.6667C54.0435 41.6667 65.8333 34.2048 65.8333 25C65.8333 15.7953 54.0435 8.33335 39.4999 8.33335ZM39.467 20.8333C41.3031 20.8333 42.7916 21.7754 42.7916 22.9375V33.6121C43.7755 33.9723 44.4374 34.6456 44.4374 35.4167C44.4374 36.5673 42.9638 37.5 41.1458 37.5H39.5329C37.6964 37.5 36.2083 36.5579 36.2083 35.3958V25C34.3903 25 32.9166 24.0673 32.9166 22.9167C32.9166 21.7661 34.3903 20.8333 36.2083 20.8333H39.467ZM39.4999 14.5833C41.3179 14.5833 42.7916 15.5161 42.7916 16.6667C42.7916 17.8173 41.3179 18.75 39.4999 18.75C37.682 18.75 36.2083 17.8173 36.2083 16.6667C36.2083 15.5161 37.682 14.5833 39.4999 14.5833Z" fill="#DA4167"/>
</g>
<defs>
<clipPath id="clip0_1_73">
<rect width="79" height="50" rx="5" fill="white"/>
</clipPath>
</defs>
</svg>
